<?xml version="1.0" standalone="no"?>
<!DOCTYPE svg PUBLIC "-//W3C//DTD SVG 1.1//EN" "http://www.w3.org/Graphics/SVG/1.1/DTD/svg11.dtd" >
<!--
2013-9-30: Created.
-->
<svg>
<metadata>
Created by iconfont
</metadata>
<defs>

<font id="iconfont" horiz-adv-x="1024" >
  <font-face
    font-family="iconfont"
    font-weight="500"
    font-stretch="normal"
    units-per-em="1024"
    ascent="896"
    descent="-128"
  />
    <missing-glyph />
    
    <glyph glyph-name="x" unicode="x" horiz-adv-x="1001"
d="M281 543q-27 -1 -53 -1h-83q-18 0 -36.5 -6t-32.5 -18.5t-23 -32t-9 -45.5v-76h912v41q0 16 -0.5 30t-0.5 18q0 13 -5 29t-17 29.5t-31.5 22.5t-49.5 9h-133v-97h-438v97zM955 310v-52q0 -23 0.5 -52t0.5 -58t-10.5 -47.5t-26 -30t-33 -16t-31.5 -4.5q-14 -1 -29.5 -0.5
t-29.5 0.5h-32l-45 128h-439l-44 -128h-29h-34q-20 0 -45 1q-25 0 -41 9.5t-25.5 23t-13.5 29.5t-4 30v167h911zM163 247q-12 0 -21 -8.5t-9 -21.5t9 -21.5t21 -8.5q13 0 22 8.5t9 21.5t-9 21.5t-22 8.5zM316 123q-8 -26 -14 -48q-5 -19 -10.5 -37t-7.5 -25t-3 -15t1 -14.5
t9.5 -10.5t21.5 -4h37h67h81h80h64h36q23 0 34 12t2 38q-5 13 -9.5 30.5t-9.5 34.5q-5 19 -11 39h-368zM336 498v228q0 11 2.5 23t10 21.5t20.5 15.5t34 6h188q31 0 51.5 -14.5t20.5 -52.5v-227h-327z" />
    

    
    <glyph glyph-name="shijian" unicode="&#59049;" d="M912.717498 469.292708c-21.904892 51.791573-53.260018 98.299817-93.192495 138.231271-39.932478 39.932478-86.440721 71.287603-138.232295 93.193519-53.633524 22.685675-110.591771 34.187637-169.292708 34.187637-58.700937 0-115.659183-11.501962-169.292708-34.187637-51.79055-21.905916-98.298793-53.260018-138.231271-93.193519-39.932478-39.932478-71.287603-86.440721-93.193519-138.231271-22.684652-53.633524-34.187637-110.591771-34.187637-169.292708 0-58.700937 11.501962-115.659183 34.187637-169.292708 21.905916-51.791573 53.261041-98.299817 93.193519-138.232295s86.440721-71.287603 138.231271-93.192495c53.633524-22.685675 110.591771-34.187637 169.292708-34.187637 58.699913 0 115.65816 11.501962 169.292708 34.187637 51.791573 21.904892 98.299817 53.260018 138.232295 93.192495s71.287603 86.440721 93.192495 138.232295c22.685675 53.633524 34.187637 110.591771 34.187637 169.292708C946.905134 358.700937 935.403173 415.659183 912.717498 469.292708zM783.344988 28.655012c-72.478731-72.478731-168.844499-112.394836-271.344988-112.394836S313.133743-43.82372 240.655012 28.655012 128.260176 197.499511 128.260176 300c0 102.500489 39.916105 198.866257 112.394836 271.344988s168.844499 112.394836 271.344988 112.394836 198.866257-39.916105 271.344988-112.394836S895.739824 402.500489 895.739824 300C895.739824 197.499511 855.82372 101.133743 783.344988 28.655012zM537.582655 586.525736c0 14.128789-11.453866 25.582655-25.582655 25.582655s-25.582655-11.453866-25.582655-25.582655l0-274.246061c0-2.117221 0.261966-4.172019 0.747014-6.139837-0.485047-1.967818-0.747014-4.022617-0.747014-6.139837 0-14.128789 11.453866-25.582655 25.582655-25.582655l286.525736 0c14.128789 0 25.582655 11.452843 25.582655 25.582655s-11.453866 25.582655-25.582655 25.582655l-260.943081 0L537.582655 586.525736z"  horiz-adv-x="1024" />

    
    <glyph glyph-name="shiliangzhinengduixiang" unicode="&#58925;" d="M511.99711-212C229.670521-212 0 17.670521 0 300.004335 0 582.328756 229.670521 812 511.99711 812c282.332369 0 512.00289-229.671244 512.00289-511.995665C1024 17.670521 794.329479-212 511.99711-212L511.99711-212zM511.99711 738.528307c-241.807611 0-438.52614-196.717807-438.52614-438.524334 0-241.775821 196.718529-438.533003 438.52614-438.533003 241.774376 0 438.53192 196.757544 438.53192 438.533003C950.52903 541.8105 753.771486 738.528307 511.99711 738.528307L511.99711 738.528307zM757.683402 435.788881c-14.335984 14.22436-37.522095 14.079862-51.70744-0.289357l-266.606678-269.530951-118.018907 121.266495c-14.112735 14.520219-37.265611 14.776702-51.70744 0.731159-14.486623-14.079139-14.815717-37.265611-0.731159-51.708885l144.017667-148.006167c0.07261-0.105845 0.217469-0.105845 0.290079-0.21783 0.07261-0.07261 0.111625-0.217469 0.184235-0.290079 2.304739-2.271144 5.156403-3.660851 7.862846-5.195417 1.428722-0.770173 2.561584-2.047895 4.02354-2.633833 4.425244-1.830425 9.140567-2.740039 13.822656-2.740039 4.642713 0 9.291206 0.909613 13.677436 2.667429 1.428722 0.584493 2.52257 1.757815 3.87832 2.487529 2.739678 1.536011 5.597121 2.886343 7.935095 5.191082 0.07261 0.07261 0.111625 0.223249 0.217469 0.295859 0.07261 0.105845 0.184235 0.144859 0.295859 0.217469l292.823268 296.010166C772.169664 398.452104 772.019386 421.598478 757.683402 435.788881L757.683402 435.788881zM757.683402 435.788881"  horiz-adv-x="1024" />

    
    <glyph glyph-name="shouji" unicode="&#58922;" d="M752.619708-144.055538 271.362896-144.055538c-38.920428 0-70.584592 31.66314-70.584592 70.584592L200.778304 674.440018c0 38.919405 31.664164 70.582545 70.584592 70.582545l481.257835 0c38.928614 0 70.599941-31.66314 70.599941-70.582545l0-747.911988C823.220672-112.392398 791.548322-144.055538 752.619708-144.055538zM271.362896 704.091338c-16.350386 0-29.652344-13.300934-29.652344-29.650297l0-747.911988c0-16.350386 13.301957-29.652344 29.652344-29.652344l481.257835 0c16.358573 0 29.667693 13.301957 29.667693 29.652344L782.288424 674.440018c0 16.349363-13.30912 29.650297-29.667693 29.650297L271.362896 704.090315zM221.244428 600.648384l581.51012 0 0-40.932248-581.51012 0 0 40.932248ZM221.244428 90.839283l581.51012 0 0-40.932248-581.51012 0 0 40.932248ZM554.525024-31.095837c0-23.499204-19.017122-42.509163-42.532699-42.509163-23.482831 0-42.549072 19.009959-42.549072 42.509163 0 23.500227 19.066241 42.548048 42.549072 42.548048C535.507902 11.452211 554.525024-7.59561 554.525024-31.095837z"  horiz-adv-x="1024" />

    
    <glyph glyph-name="jilu" unicode="&#58950;" d="M872.50975-147.864284 232.703923-147.864284c-23.557532 0-42.653449 19.095917-42.653449 42.653449L190.050474 44.078283l-85.307921 0L104.742553 214.693102l85.307921 0L190.050474 385.307921l-85.307921 0L104.742553 555.92274l85.307921 0L190.050474 705.210835c0 23.557532 19.095917 42.653449 42.653449 42.653449l639.805828 0c23.557532 0 42.653449-19.095917 42.653449-42.653449l0-810.420647C915.163199-128.768367 896.067282-147.864284 872.50975-147.864284zM872.50975 662.557386c0 23.557532-19.095917 42.653449-42.653449 42.653449l-554.49893 0c-23.557532 0-42.653449-19.095917-42.653449-42.653449l0-725.113749c0-23.557532 19.095917-42.653449 42.653449-42.653449l554.49893 0c23.557532 0 42.653449 19.095917 42.653449 42.653449L872.50975 662.557386zM318.011844 108.058456 787.202852 108.058456l0-42.653449L318.011844 65.405007 318.011844 108.058456zM318.011844 321.326724 787.202852 321.326724l0-42.653449L318.011844 278.673276 318.011844 321.326724zM318.011844 534.596016 616.58701 534.596016l0-42.653449L318.011844 491.942567 318.011844 534.596016z"  horiz-adv-x="1024" />

    
    <glyph glyph-name="vip" unicode="&#59162;" d="M844.9488 168.072c-29.5024 51.1024-58.9984 102.208-88.504 153.3232 0.704 0.8512 1.1808 1.4672 1.6976 2.048 72.4384 81.1552 101.6192 175.8384 86.1152 283.336-11.0048 76.3024-45.6816 141.3072-101.4272 194.5696C688.488 853.2704 623.7184 883.9056 549.0544 893.344c-7.9632 1.0064-15.9552 1.776-23.9344 2.656-12.0096 0-24.0192 0-36.0288 0-1.3728-0.2688-2.736-0.608-4.12-0.7968-16.2496-2.2288-32.712-3.4288-48.72-6.8C258.9568 851.064 141.3504 680.4304 169.8 502.0272c11.1872-70.152 41.3584-131.0832 90.224-182.6592 3.0288-3.1968 3.3824-5.2096 1.1344-9.0912C205.0688 213.4304 149.1408 116.4912 93.1872 19.568c-0.8112-1.4048-1.592-2.8272-2.9776-5.288 65.4496 17.528 129.6432 34.72 194.1696 52.0016 17.3536-64.7344 34.5616-128.9216 52.0704-194.232 58.8192 101.8656 116.984 202.6016 175.496 303.9328 58.664-101.6016 116.7776-202.2464 175.52-303.9824 17.5792 65.5808 34.792 129.7936 52.0672 194.24 64.6784-17.3232 128.8944-34.5248 194.2576-52.032C903.7776 66.1856 874.36 117.1264 844.9488 168.072zM344.0784-0.9712c-10.5744 39.4096-20.8448 77.6848-31.2624 116.5072-38.6144-10.3328-76.9056-20.5792-116.5264-31.1808 37.472 64.9104 74.3296 128.7536 111.5056 193.1504 48.5488-34.512 101.848-55.0896 161.2048-62.096C427.3216 143.216 386.0256 71.688 344.0784-0.9712zM507.216 270.2352c-157.144-0.0672-284.6432 127.4384-284.5488 284.5616 0.0944 156.9936 127.3392 284.232 284.3264 284.3152 157.1264 0.0832 284.64-127.44 284.5488-284.5664C791.4512 397.552 664.1936 270.3024 507.216 270.2352zM711.0928 115.4928c-10.3584-38.6112-20.6304-76.8976-31.2576-116.5088-42.184 73.0624-83.7072 144.9776-125.6016 217.5376 58.824 8.5072 111.5408 30.4528 158.9664 65.984 38.0688-65.9344 75.9152-131.4848 114.4304-198.192C788.1904 94.8656 749.848 105.1232 711.0928 115.4928zM550.3136 648.744c8.2448 0 16.0992 0 24.2288 0 0 9.4496 0 18.5136 0 27.76-1.0256 0.1424-1.7808 0.3376-2.536 0.3376-28.9136 0.0176-57.8256-0.032-86.7392 0.096-2.9872 0.0128-3.6992-1.5824-4.4544-3.7712-25.3568-73.3968-52.1376-146.3024-76.2032-218.5856-1.176 4.8064-2.2992 11.5168-4.456 17.8784-13.6784 40.3232-27.5824 80.5696-41.4176 120.84-9.0688 26.3984-18.1168 52.8048-27.2992 79.1648-0.5776 1.656-2.2096 4.16-3.4096 4.1936-11.4384 0.32-22.8896 0.1904-34.768 0.1904 0.5552-1.8496 0.8576-3.0544 1.2752-4.2176 5.4288-15.1424 10.8656-30.2816 16.3152-45.416 24.4144-67.8112 48.8672-135.6096 73.1648-203.4624 1.392-3.888 3.1408-5.3696 7.376-5.1856 8.6736 0.3776 17.3824 0.3344 26.0608 0.016 4.0944-0.1504 5.9808 1.032 7.4544 5.064 26.6176 72.8832 53.5024 145.6704 80.0416 218.5824 1.9376 5.3248 4.4432 7.3168 9.7072 6.3632 0.4544-0.0816 0.912-0.1488 1.7104-0.2768 0-67.2576 0-134.1664 0-201.6352-8.2288 0-16.1888 0-24.1152 0 0-9.6208 0-18.6752 0-27.6368 27.6336 0 54.8864 0 82.3344 0 0 9.2912 0 18.2192 0 27.7168-8.2096 0-16.1744 0-24.2704 0C550.3136 514.3392 550.3136 581.3488 550.3136 648.744zM756.816 612.3008c-3.9744 32.432-22.8208 52.2864-53.8656 60.3728-10.4224 2.7152-21.488 3.7344-32.2992 4.0096-23.0496 0.5872-46.1248 0.184-69.1904 0.1696-1.5376-0.0016-3.0752-0.1392-4.8592-0.2256 0-85.9888 0-171.6752 0-257.5904 11.048 0 21.8256 0 33.2144 0 0 32.1456 0 63.9376 0 95.9936 12.2896 0 23.9664 0.0432 35.6416-0.0096 18.3184-0.0816 35.8528 3.168 51.7568 12.696C749.0928 546.8144 761.2144 576.4096 756.816 612.3008zM684.9024 547.2416c-10.4512-2.7536-43.4352-4.0768-55.0416-2.2992 0 34.1808 0 68.0848 0 102.576 6.6592 0 13.0976 0.2848 19.5024-0.0608 12.7312-0.6864 25.704-0.4192 38.1088-2.8976 22.1808-4.432 34.0656-19.5408 34.9008-42.1728 0.248-6.7232-0.0288-13.6816-1.5008-20.2096C716.5296 562.928 703.4272 552.1216 684.9024 547.2416z"  horiz-adv-x="1024" />

    
    <glyph glyph-name="cuotikuicon" unicode="&#58880;" d="M898.439042 56.195196c0-32.8915-35.587871-59.585401-79.446935-59.585401L262.859565-3.390205c-43.856066 0-79.446935 26.693902-79.446935 59.585401L183.41263 711.642203c0 32.891699 35.593268 59.585001 79.446935 59.585001l556.132542 0c43.859064 0 79.446935-26.693302 79.446935-59.585001L898.439042 56.195196 898.439042 56.195196zM64.23963 668.305585l0-81.252711 59.585001 0 0-162.50702L64.23963 424.545854l0-81.257108 59.585001 0 0-162.504422L64.23963 180.784324l0-81.249713 59.585001 0c0-162.509419 0-162.509419 119.172801-162.509419l595.862006 0c119.170003 0 119.170003 0 119.170003 162.509419L958.02944 668.305585c0 162.50682 0 162.50682-119.170003 162.50682l-595.862006 0c-119.172801 0-119.172801 0-119.172801-162.50682L64.23963 668.305585zM749.47444 666.952102l29.794799 44.6901 59.590398 0-59.590398-89.3802 59.590398-89.377602-59.590398 0-29.794799 44.687502-29.790602-44.687502-59.584402 0 59.584402 89.377602-59.584402 89.3802 59.584402 0L749.47444 666.952102zM749.47444 428.608699l29.794799 44.6901 59.590398 0-59.590398-89.3802 59.590398-89.382599-59.590398 0-29.794799 44.692698-29.790602-44.692698-59.584402 0 59.584402 89.382599-59.584402 89.3802 59.584402 0L749.47444 428.608699 749.47444 428.608699zM749.47444 190.268094l29.794799 44.687502 59.590398 0-59.590398-89.3802 59.590398-89.3802-59.590398 0-29.794799 44.687702-29.790602-44.687702-59.584402 0 59.584402 89.3802-59.584402 89.3802 59.584402 0L749.47444 190.268094 749.47444 190.268094zM579.233264 652.054803 323.863005 652.054803c-11.746436 0-21.279972-13.346951-21.279972-29.7928 0-16.475829 9.533536-29.7928 21.279972-29.7928L579.233264 592.469202c11.747036 0 21.280572 13.316971 21.280572 29.7928C600.513836 638.707852 590.980299 652.054803 579.233264 652.054803zM579.233264 175.366198 323.863005 175.366198c-11.746436 0-21.279972-13.314972-21.279972-29.790802s9.533536-29.794799 21.279972-29.794799L579.233264 115.780597c11.747036 0 21.280572 13.31897 21.280572 29.794799S590.980299 175.366198 579.233264 175.366198zM579.233264 413.7114 323.863005 413.7114c-11.746436 0-21.279972-13.346951-21.279972-29.7928 0-16.478228 9.533536-29.792201 21.279972-29.792201L579.233264 354.126398c11.747036 0 21.280572 13.313973 21.280572 29.792201C600.513836 400.364449 590.980299 413.7114 579.233264 413.7114z"  horiz-adv-x="1024" />

    
    <glyph glyph-name="wode1" unicode="&#59123;" d="M511.576351-59.872367c-245.540276 0-444.583564 199.046359-444.583564 444.583564s199.043289 444.585611 444.583564 444.585611c245.537206 0 444.580494-199.048405 444.580494-444.585611S757.113557-59.872367 511.576351-59.872367zM511.576351 779.897725c-218.247676 0-395.187551-176.932712-395.187551-395.187551 0-218.256886 176.939875-395.187551 395.187551-395.187551 218.256886 0 395.187551 176.930665 395.187551 395.187551C906.763902 602.965014 729.833237 779.897725 511.576351 779.897725zM511.576351 360.011656c-114.411773 0-208.547757-86.462211-220.847897-197.591217l-49.595558 0c9.637498 106.771769 81.077573 195.508789 178.207751 230.640937-33.853016 27.15957-55.958476 68.367087-55.958476 115.145483 0 81.848123 66.352197 148.195204 148.195204 148.195204 81.84096 0 148.193157-66.347081 148.193157-148.195204 0-46.777373-22.10546-87.985914-55.958476-115.145483 97.129154-35.132148 168.5723-123.869169 178.209798-230.640937l-49.595558 0C720.124108 273.549445 625.985054 360.011656 511.576351 360.011656zM610.363262 508.20686c0 54.562686-44.226271 98.797144-98.78691 98.797144-54.562686 0-98.79919-44.233434-98.79919-98.797144s44.236504-98.79919 98.79919-98.79919l0 0 0 0C566.136991 409.40767 610.363262 453.644173 610.363262 508.20686z"  horiz-adv-x="1024" />

    
    <glyph glyph-name="mima" unicode="&#58911;" d="M814.953382-64.358541 201.825147-64.358541c-52.04433 0-94.326319 42.303478-94.326319 94.304829L107.498828 312.904779c0 52.045353 42.281989 94.349855 94.326319 94.349855l613.127212 0c52.046377 0 94.349855-42.303478 94.349855-94.349855l0-282.95849C909.303236-22.055063 866.999758-64.358541 814.953382-64.358541L814.953382-64.358541zM862.116541 312.904779c0 26.000164-21.166065 47.174416-47.164183 47.174416L201.825147 360.079194c-25.999141 0-47.162136-21.173229-47.162136-47.174416l0-282.95849c0-26.024723 21.164019-47.187719 47.162136-47.187719l613.127212 0c25.998117 0 47.164183 21.164019 47.164183 47.187719L862.116541 312.904779 862.116541 312.904779zM791.39278 501.593232c-13.057387 0-23.603581 10.513448-23.603581 23.559579 0 143.032624-116.3888 259.410168-259.422448 259.410168-143.03467 0-259.377422-116.377544-259.377422-259.410168l0-141.469012c0-13.046131-10.547217-23.604604-23.581068-23.604604-13.059434 0-23.583115 10.558473-23.583115 23.604604L201.825147 525.15281c0 169.078837 137.50677 306.574351 306.541605 306.574351 169.033811 0 306.58663-137.495514 306.58663-306.574351C814.953382 512.10668 804.381605 501.593232 791.39278 501.593232L791.39278 501.593232zM508.366751 171.43679c-26.046213 0-47.117111 21.140483-47.117111 47.163159 0 26.069749 21.070898 47.187719 47.117111 47.187719 26.091238 0 47.164183-21.118993 47.164183-47.187719C555.530934 192.577273 534.457989 171.43679 508.366751 171.43679L508.366751 171.43679zM508.366751 77.109448c-12.988826 0-23.559579 10.54824-23.559579 23.604604l0 94.304829c0 13.032828 10.570753 23.581068 23.559579 23.581068 13.057387 0 23.604604-10.54824 23.604604-23.581068l0-94.304829C531.971355 87.656665 521.424138 77.109448 508.366751 77.109448L508.366751 77.109448z"  horiz-adv-x="1024" />

    
    <glyph glyph-name="yishoucang" unicode="&#58900;" d="M516.266667 878.933333c-273.339733 0-494.933333-221.5936-494.933333-494.933333 0-273.339733 221.5936-494.933333 494.933333-494.933333 273.339733 0 494.933333 221.5936 494.933333 494.933333C1011.2 657.339733 789.6064 878.933333 516.266667 878.933333zM716.970667 281.361067c-82.3296-110.6944-180.736-158.378667-200.738133-158.378667-14.6432 0-113.664 41.2672-200.704 158.4128-54.306133 73.079467-67.720533 150.289067-36.795733 211.8656 24.7808 49.288533 76.014933 79.906133 133.700267 79.906133 52.258133 0 85.981867-40.448 103.7312-63.658667 17.92 23.586133 51.677867 63.658667 103.901867 63.658667 57.685333 0 108.919467-30.6176 133.700267-79.940267C784.6912 431.650133 771.310933 354.440533 716.970667 281.361067z"  horiz-adv-x="1024" />

    
    <glyph glyph-name="quxiantu" unicode="&#58906;" d="M934.808 645.836c-112.565-5.615-109.9-224.277-137.12-302.589-35.215-101.165-122.715-187.585-240.494-152.655-100.372 29.655-166.322 223.537-288.637 149.99-83.815-50.41-125.832-160.595-146.192-252.404-0.225-0.905-0.622-1.7-0.792-2.495l0-94.755 781.986 0c17.24 0 31.305-14.005 31.305-31.3 0-17.245-14.005-31.305-31.305-31.305L90.325-71.677c-17.237 0-31.3 14.01-31.3 31.305l0 813.23c0 17.237 14.005 31.302 31.3 31.302 17.24 0 31.305-14.005 31.305-31.302l0-506.446c22.512 40.94 50.47 78.48 85.4 107.625 106.155 88.522 216.619 25.862 290.339-64.36 46.61-57.16 137.855-94.76 197.68-27.785 46.33 51.715 56.935 127.647 70.49 193.257 20.525 99.745 45.705 227.052 169.21 233.177C975.128 710.368 974.953 647.821 934.808 645.836L934.808 645.836z"  horiz-adv-x="1024" />

    
    <glyph glyph-name="ceshi" unicode="&#58908;" d="M199.111111-128c-62.577778 0-113.777778 51.2-113.777778 113.777778V668.444444c0 62.577778 51.2 113.777778 113.777778 113.777778 19.911111 0 36.977778-17.066667 36.977778-36.977778v-54.044444c-42.666667-11.377778-73.955556-25.6-73.955556-71.111111V42.666667c0-51.2 39.822222-93.866667 93.866667-93.866667h497.777778c51.2 0 93.866667 42.666667 93.866666 93.866667V620.088889c0 45.511111-31.288889 59.733333-76.8 68.266667V742.4c-2.844444 22.755556 14.222222 39.822222 34.133334 39.822222 62.577778 0 113.777778-51.2 113.777778-113.777778v-682.666666c0-62.577778-51.2-113.777778-113.777778-113.777778H199.111111z m341.333333 304.355556h227.555556c19.911111 0 36.977778-17.066667 36.977778-36.977778S787.911111 99.555556 768 99.555556h-227.555556c-19.911111 0-36.977778 17.066667-36.977777 36.977777s17.066667 39.822222 36.977777 39.822223z m0 301.511111h227.555556c19.911111 0 36.977778-17.066667 36.977778-36.977778s-17.066667-36.977778-36.977778-36.977778h-227.555556c-19.911111 0-36.977778 17.066667-36.977777 36.977778s17.066667 36.977778 36.977777 36.977778z m-227.555555 227.555555V745.244444c0 19.911111 17.066667 36.977778 36.977778 36.977778h36.977777c0 62.577778 51.2 113.777778 113.777778 113.777778s113.777778-51.2 113.777778-113.777778H654.222222c19.911111 0 36.977778-17.066667 36.977778-36.977778v-36.977777L312.888889 705.422222z m-99.555556-233.244444c5.688889 5.688889 17.066667 5.688889 25.6 0l62.577778-62.577778 136.533333 136.533333c8.533333 8.533333 22.755556 8.533333 28.444445 0 8.533333-8.533333 8.533333-19.911111 0-28.444444l-147.911111-147.911111c-5.688889-2.844444-11.377778-5.688889-17.066667-5.688889-5.688889 0-8.533333 2.844444-11.377778 5.688889l-73.955555 73.955555c-11.377778 11.377778-11.377778 22.755556-2.844445 28.444445z m207.644445-403.911111c-8.533333-8.533333-22.755556-8.533333-28.444445 0L332.8 128l-59.733333-59.733333c-8.533333-8.533333-22.755556-8.533333-28.444445 0-8.533333 8.533333-8.533333 22.755556 0 28.444444l59.733334 59.733333-59.733334 59.733334c-8.533333 8.533333-8.533333 22.755556 0 28.444444 8.533333 8.533333 19.911111 8.533333 28.444445 0l59.733333-59.733333 59.733333 59.733333c8.533333 8.533333 22.755556 8.533333 28.444445 0 8.533333-8.533333 8.533333-19.911111 0-28.444444L361.244444 156.444444l59.733334-59.733333c8.533333-5.688889 8.533333-19.911111 0-28.444444z"  horiz-adv-x="1024" />

    
    <glyph glyph-name="ceshijilu" unicode="&#58990;" d="M512 500.224c-64.512 0-116.224-52.224-116.224-116.224 0-64.512 52.224-116.224 116.224-116.224 64.512 0 116.224 52.224 116.224 116.224S576.512 500.224 512 500.224z m0-196.608c-44.544 0-80.384 35.84-80.384 80.384s35.84 80.384 80.384 80.384 80.384-35.84 80.384-80.384-35.84-80.384-80.384-80.384zM880.128 401.92l-350.208 350.208c-10.24 10.24-26.112 10.24-36.352 0L143.872 401.92c-10.24-10.24-10.24-26.112 0-36.352L494.08 15.36c10.24-10.24 26.112-10.24 36.352 0l350.208 350.208c9.728 10.24 9.728 26.624-0.512 36.352z m-61.44-34.816l-289.792-289.792c-9.216-9.216-24.576-9.216-34.304 0L204.8 367.104c-9.216 9.216-9.216 24.576 0 34.304L494.592 691.2c9.216 9.216 24.576 9.216 34.304 0l289.792-289.792c9.216-9.728 9.216-25.088 0-34.304z"  horiz-adv-x="1024" />

    
    <glyph glyph-name="statistics" unicode="&#58939;" d="M692.972 895.898l-572.329 0.102c-33.316 0-61.076-26.25-61.076-59.566v-904.858c0-33.316 27.761-59.571 61.076-59.571h784.215c33.316 0 59.571 26.255 59.571 59.571v694.682l-271.457 269.64zM904.105-67.676h-784.21v904.863h512.753v-272.968h271.457v-631.895zM686.94 620.017v216.417l217.923-216.412-217.923-0.005zM601.713 100.936l-182.579 299.249-117.253-190.372h-129.203v60.324h95.508l151.188 245.473 180.869-296.448 79.826 138.45h168.233v-60.324h-133.386l-113.203-196.352z"  horiz-adv-x="1024" />

    
    <glyph glyph-name="guanyuwomen" unicode="&#58915;" d="M531.9 357.9C582.9 389.5 617 446.4 617 511.2c0 99.1-79.7 179.6-177.7 179.6S261.6 610.2 261.6 511.2c0-64.8 34.1-121.7 85.1-153.3C241.4 319.5 166 217.4 166 97.9c0-11.8 9.6-21.4 21.4-21.4 11.8 0 21.4 9.6 21.4 21.4 0 128.8 103.4 233.6 230.6 233.6 127.2 0 230.6-104.8 230.6-233.6 0-11.8 9.6-21.4 21.4-21.4s21.4 9.6 21.4 21.4c-0.2 119.5-75.6 221.6-180.9 260zM304.3 511.2c0 75.5 60.6 136.9 135 136.9s135-61.4 135-136.9-60.6-136.9-135-136.9-135 61.4-135 136.9zM701.7 357.9c42.4 30.2 69 79.9 69 135.1 0 91.2-73.4 165.4-163.7 165.4-11.8 0-21.4-9.6-21.4-21.4 0-11.8 9.6-21.4 21.4-21.4 66.7 0 120.9-55 120.9-122.7 0-56.9-38-105.9-92.5-119.2-10.9-2.7-17.7-13.2-16-24 0-0.1 0-0.3 0.1-0.4 0-0.1 0-0.3 0.1-0.4 1.7-8.7 8.6-15.7 17.8-17.1 101.2-15 177.5-104.6 177.5-208.5 0-11.8 9.6-21.4 21.4-21.4s21.4 9.6 21.4 21.4c0 104.2-64 196.4-156 234.6z"  horiz-adv-x="1024" />

    
    <glyph glyph-name="xuanzhong" unicode="&#58930;" d="M847.7 831.6H176.3c-61.8 0-111.9-50.1-111.9-111.9v-671.3c0-61.8 50.1-111.9 111.9-111.9h671.3c61.8 0 111.9 50.1 111.9 111.9V719.7c0.1 61.8-50 111.9-111.8 111.9z m55.9-783.3c0-30.9-25.1-55.9-55.9-55.9H176.3c-30.9 0-55.9 25.1-55.9 55.9V719.7c0 30.9 25.1 55.9 55.9 55.9h671.3c30.9 0 55.9-25.1 55.9-55.9v-671.4h0.1zM709.8 581.7L440.3 312.2 320.7 431.9c-17.3 17.3-45.4 17.3-62.6 0-17.4-17.3-17.4-45.4 0-62.6l151-151c8.7-8.7 20-13 31.3-13s22.7 4.4 31.3 13l300.8 300.8c17.3 17.3 17.3 45.3 0 62.7-17.3 17.2-45.4 17.2-62.7-0.1m0 0"  horiz-adv-x="1024" />

    
    <glyph glyph-name="yanzhengma" unicode="&#58918;" d="M959.608 609.435c0 64.381-52.191 116.571-116.571 116.571H181.835c-64.381 0-116.571-52.191-116.571-116.571v-449.141c0-64.381 52.191-116.571 116.571-116.571h661.202c64.381 0 116.571 52.191 116.571 116.571V609.435z m-114.673 74.569c12.073 0 23.471-3.469 33.557-8.608l-346.971-328.66c-1.229-1.163-1.157-0.919-1.754-1.871-1.428-1.069-6.063-3.927-15.467-3.927-9.408 0-14.041 2.758-15.469 3.823-0.677 1.079-0.662 0.717-1.997 1.943L143.316 671.48c11.622 7.565 25.473 12.524 40.346 12.524h661.273z m72.671-524.615c0-40.903-31.767-73.665-72.671-73.665H183.661c-40.904 0-75.37 32.762-75.37 73.665V608.718c0 10.642 2.863 20.758 6.917 29.916l351.879-322.456c4.917-5.31 19.501-17.697 47.061-17.697 27.831 0 42.351 12.633 47.129 17.85l347.189 329.268c6.258-10.872 9.14-23.46 9.14-36.879v-449.331z"  horiz-adv-x="1024" />

    
    <glyph glyph-name="chaping" unicode="&#59097;" d="M890.713 543.992c-20.717 48.935-50.354 92.899-88.082 130.63C764.9 712.364 720.947 742 672 762.706c-50.688 21.429-104.52 32.3-160 32.3-55.479 0-109.31-10.872-159.997-32.3-48.947-20.705-92.899-50.342-130.631-88.084-37.753-37.731-67.367-81.695-88.083-130.63-21.43-50.698-32.313-104.518-32.313-159.999 0-55.479 10.883-109.312 32.313-159.999 20.716-48.924 50.33-92.898 88.083-130.627 37.731-37.732 81.684-67.393 130.631-88.086C402.69-16.146 456.521-27.006 512-27.006c55.48 0 109.313 10.859 160 32.287 48.924 20.693 92.9 50.354 130.631 88.086 37.729 37.729 67.365 81.703 88.082 130.627 21.432 50.688 32.311 104.52 32.311 159.999-0.001 55.482-10.881 109.301-32.311 159.999M512 12.908c-204.618 0-371.085 166.465-371.085 371.085 0 204.619 166.467 371.085 371.085 371.085 204.621 0 371.088-166.466 371.088-371.085C883.086 179.375 716.621 12.908 512 12.908m166.176 423.736c27.408 0 49.639 22.209 49.639 49.638s-22.23 49.661-49.639 49.661c-27.428 0-49.66-22.232-49.66-49.661s22.232-49.638 49.66-49.638m-332.35 1.159c27.428 0 49.66 22.255 49.66 49.682 0 27.407-22.232 49.64-49.66 49.64-27.43 0-49.662-22.232-49.662-49.64 0-27.427 22.234-49.682 49.662-49.682m287.795-167.114c-37.24 18.82-79.295 28.766-121.621 28.766-42.323 0-84.381-9.945-121.619-28.766-36.104-18.24-67.77-42.457-91.541-74.414-6.578-8.854-4.728-21.361 4.126-27.939 8.853-6.58 21.34-4.727 27.918 4.102 41.633 56.018 109.335 87.08 181.116 87.08s139.484-31.063 181.117-87.08c6.578-8.828 19.064-10.66 27.918-4.102 8.854 6.6 10.703 19.086 4.104 27.939-23.772 31.979-55.414 56.174-91.518 74.414m0 0z"  horiz-adv-x="1024" />

    
    <glyph glyph-name="chahao" unicode="&#59052;" d="M512.001 830.844C265.203 830.844 65.156 630.797 65.156 384c0-246.77 200.047-446.845 446.845-446.845 246.77 0 446.844 200.075 446.844 446.845S758.797 830.844 512.001 830.844z m0-837.833c-215.937 0-390.989 175.052-390.989 390.989s175.052 390.988 390.989 390.988c215.909 0 390.988-175.051 390.988-390.988S727.938-6.989 512.001-6.989zM336.056 171.974l-36.082 36.083a1.62 1.62 0 0 0 0 2.284L685.66 596.026a1.62 1.62 0 0 0 2.284 0l36.082-36.082a1.62 1.62 0 0 0 0-2.284L338.34 171.974a1.618 1.618 0 0 0-2.284 0zM724.026 208.056l-36.083-36.082a1.62 1.62 0 0 0-2.284 0L299.974 557.66a1.62 1.62 0 0 0 0 2.284l36.082 36.082a1.62 1.62 0 0 0 2.284 0L724.026 210.34a1.618 1.618 0 0 0 0-2.284z"  horiz-adv-x="1024" />

    
    <glyph glyph-name="zaixianceshi" unicode="&#59035;" d="M385.8 509.3c-69.6 0-126.2-56.2-126.2-125.3s56.6-125.3 126.2-125.3S512 314.9 512 384s-56.6 125.3-126.2 125.3z m0-200.5c-41.8 0-75.8 33.7-75.8 75.2s34 75.2 75.8 75.2 75.8-33.7 75.8-75.2-34.1-75.2-75.8-75.2zM643.1 261c4.9-4.9 11.4-7.3 17.9-7.3s12.9 2.4 17.9 7.3l106 105.2c9.9 9.8 9.9 25.6 0 35.4L678.8 507c-9.9 9.8-25.8 9.8-35.7 0s-9.9-25.6 0-35.4l88.2-87.5-88.2-87.5c-9.8-9.9-9.8-25.8 0-35.6zM927.8 617.4l-404 211.2c-7.4 3.9-16.2 3.9-23.6 0l-404-211.2a25.04 25.04 0 0 1-13.5-22.2v-422.5c0-9.3 5.2-17.8 13.5-22.2l404-211.2c3.7-1.9 7.7-2.9 11.8-2.9s8.1 1 11.8 2.9l404 211.2c8.3 4.3 13.5 12.9 13.5 22.2V595.2c-0.1 9.3-5.2 17.9-13.5 22.2z m-37-429.5L512-10.2 133.2 187.9V580.1L512 778.2l378.8-198.1v-392.2z"  horiz-adv-x="1024" />

    
    <glyph glyph-name="yiban-" unicode="&#58953;" d="M512 896C229.376 896 0 666.624 0 384s229.376-512 512-512 512 229.376 512 512S794.624 896 512 896z m0-957.44c-245.76 0-445.44 199.68-445.44 445.44s199.68 445.44 445.44 445.44 445.44-199.68 445.44-445.44-199.68-445.44-445.44-445.44z m199.68 594.432c-34.304 0-62.464-28.16-62.464-62.464 0-34.304 28.16-62.464 62.464-62.464 34.304 0 62.464 28.16 62.464 62.464 0 34.304-27.648 62.464-62.464 62.464zM399.36 470.528c0 34.304-28.16 62.464-62.464 62.464-34.304 0-62.464-28.16-62.464-62.464 0-34.304 28.16-62.464 62.464-62.464 34.816 0 62.464 28.16 62.464 62.464z m263.168-261.12H386.56c-14.848 0-26.624-11.776-26.624-26.624s11.776-26.624 26.624-26.624h275.968c14.848 0 26.624 11.776 26.624 26.624 0.512 14.848-11.776 26.624-26.624 26.624z"  horiz-adv-x="1024" />

    
    <glyph glyph-name="icon_lianxijilu_normal" unicode="&#58913;" d="M234.666667 661.333333c0-21.333333-17.066667-34.133333-38.4-34.133333H85.333333c-8.533333 0-21.333333 4.266667-25.6 8.533333-8.533333 4.266667-12.8 17.066667-12.8 25.6 0 21.333333 17.066667 34.133333 38.4 34.133334h110.933334c21.333333 0 38.4-17.066667 38.4-34.133334z m0-153.6c0-21.333333-17.066667-34.133333-38.4-34.133333H85.333333c-8.533333 0-21.333333 4.266667-25.6 8.533333-8.533333 8.533333-12.8 17.066667-12.8 25.6 0 21.333333 17.066667 34.133333 38.4 34.133334h110.933334c21.333333 0 38.4-12.8 38.4-34.133334z m0-157.866666c0-21.333333-17.066667-34.133333-38.4-34.133334H85.333333c-8.533333 0-21.333333 4.266667-25.6 8.533334-8.533333 8.533333-12.8 17.066667-12.8 25.6 0 21.333333 17.066667 34.133333 38.4 34.133333h110.933334c21.333333 0 38.4-12.8 38.4-34.133333zM981.333333 341.333333c0-25.6-17.066667-42.666667-38.4-42.666666h-110.933333c-21.333333 0-38.4 21.333333-38.4 42.666666v85.333334c0 25.6 17.066667 42.666667 38.4 42.666666h110.933333c21.333333 0 38.4-21.333333 38.4-42.666666v-85.333334zM819.2 277.333333c-25.6 0-46.933333 25.6-46.933333 51.2v106.666667c0 29.866667 21.333333 51.2 46.933333 51.2h68.266667V755.2c0 38.4-25.6 72.533333-59.733334 72.533333H196.266667c-34.133333 0-59.733333-29.866667-59.733334-72.533333v-42.666667h68.266667c25.6 0 46.933333-25.6 46.933333-51.2 0-29.866667-21.333333-51.2-46.933333-51.2H136.533333v-46.933333h68.266667c25.6 0 46.933333-25.6 46.933333-51.2 0-29.866667-21.333333-51.2-46.933333-51.2H136.533333v-51.2h68.266667c25.6 0 46.933333-25.6 46.933333-51.2 0-29.866667-21.333333-51.2-46.933333-51.2H136.533333v-285.866667c0-38.4 25.6-72.533333 59.733334-72.533333h627.2c34.133333 0 59.733333 29.866667 59.733333 72.533333v264.533334l-64-8.533334z"  horiz-adv-x="1024" />

    
    <glyph glyph-name="weixuanzhong" unicode="&#58881;" d="M768 704c28.672 0 64-35.264 64-64v-512c0-28.672-35.328-64-64-64H256c-28.736 0-64 35.328-64 64V640c0 28.736 35.264 64 64 64h512m0 64H256C192 768 128 704 128 640v-512c0-64 64-128 128-128h512c64 0 128 64 128 128V640c0 64-64 128-128 128z"  horiz-adv-x="1024" />

    
    <glyph glyph-name="weishoucang" unicode="&#58957;" d="M512-76.8c-253.952 0-460.8 206.848-460.8 460.8s206.848 460.8 460.8 460.8 460.8-206.848 460.8-460.8-206.848-460.8-460.8-460.8z m0 884.736c-233.984 0-423.936-189.952-423.936-423.936 0-233.984 189.952-423.936 423.936-423.936s423.936 189.952 423.936 423.936c0 233.984-189.952 423.936-423.936 423.936z m0-715.776c-7.68 0-14.848 3.072-20.48 8.704l-204.8 204.8c-32.768 32.768-50.688 76.288-50.688 122.88 0 45.568 18.432 90.624 50.688 122.88 19.456 19.456 43.008 33.792 69.12 42.496l6.656 2.048c15.872 4.608 31.744 6.656 47.616 6.656 35.328 0 69.12-10.752 98.304-30.72l4.096-3.072c29.696 21.504 66.048 33.792 102.4 33.28 45.568 0 90.624-18.432 122.88-50.688 67.584-67.584 67.584-178.176 0-245.76l-205.312-204.8c-5.12-5.632-12.8-8.704-20.48-8.704z m-5.632 34.816c0-0.512 0-0.512 0 0z m11.264 0zM409.6 565.248c-12.288 0-24.576-1.536-36.864-5.12l-5.632-2.048c-20.48-6.656-39.424-17.92-54.272-33.28-25.6-25.6-40.448-60.416-39.936-96.768 0-36.864 14.336-71.168 39.936-96.768l199.68-199.168 199.68 199.168c53.248 53.248 53.248 140.288 0 193.536-25.088 25.6-60.416 39.936-96.256 39.936h-1.024c-30.72 0-60.928-10.752-84.992-29.696l-15.872-12.8-25.6 18.432c-24.064 16.384-51.2 24.576-78.848 24.576z"  horiz-adv-x="1024" />

    
    <glyph glyph-name="youxiu" unicode="&#58897;" d="M513.291708 743.418842c-198.987014 0-360.717252-161.822678-360.717251-360.943486 0-198.676855 162.231358-360.492235 360.717251-360.492235 198.999177 0 360.730631 161.81538 360.730632 360.492235 0.070546 199.120808-161.660909 360.943486-360.730632 360.943486z m0-676.851897c-174.314176 0-315.727181 141.989535-315.72718 315.909627 0 174.427293 141.912908 315.853677 315.72718 315.853677 174.327555 0 315.74056-141.490849 315.740561-315.910843 0-174.356747-141.84966-315.852461-315.740561-315.852461z m184.978778 215.247855c-46.497079-54.249835-113.795482-85.740087-184.978778-85.740087-71.165051 0-138.475617 30.984268-184.467927 85.232886-8.227117 9.664795-6.796737 23.784932 2.432619 31.999886 9.229356 8.241713 23.749659 6.806468 31.970694-2.4387 37.771274-44.072974 92.490605-69.776026 150.571816-69.776026 57.656718 0 112.807839 25.194634 150.570598 69.776026 8.22955 9.666011 22.235354 10.680413 31.47809 2.4387 9.723178-8.216171 10.653655-22.335091 2.422888-31.492685z m-336.043198 161.25831v0.248128c0 19.895174 16.450586 36.353058 36.338462 36.353057 19.883011 0 36.333597-16.457884 36.333597-36.353057v-0.248128c0-19.902472-16.450586-36.361572-36.333597-36.361571-19.887876 0-36.338462 16.535727-36.338462 36.361571z m229.534626 0v0.248128c0 19.895174 16.456667 36.353058 36.339678 36.353057 19.895174 0 36.339678-16.457884 36.339679-36.353057v-0.248128c0-19.902472-15.951899-36.361572-36.339679-36.361571-19.883011 0.071762-36.339678 16.535727-36.339678 36.361571z"  horiz-adv-x="1024" />

    
    <glyph glyph-name="mima1" unicode="&#58959;" d="M510.976 829.44c-128 0-224.768-101.888-224.768-237.056v-83.456h-7.168c-67.072 0-121.856-56.32-121.856-125.44v-320c0-69.12 54.784-125.44 121.856-125.44h465.408c67.072 0 121.856 56.32 121.856 125.44V384c0 69.12-54.784 125.44-121.856 125.44h-4.096c-1.024 0.512-2.048 0.512-3.072 0.512V592.384C737.28 727.552 640 829.44 510.976 829.44z m0-37.376c109.568 0 189.44-83.968 189.44-199.68v-81.92H323.584v81.92c0 115.712 78.848 199.68 187.392 199.68zM829.44 384v-320c0-48.64-37.888-88.064-84.992-88.064H279.04c-46.592 0-84.992 39.424-84.992 88.064V384c0 48.64 37.888 88.064 84.992 88.064h465.408c47.104 0 84.992-39.424 84.992-88.064zM688.64 347.648l-216.064-209.92-95.232 98.304c-10.752 10.752-27.648 11.264-38.912 0.512-10.752-10.752-11.264-27.648-0.512-38.912l114.176-117.76c10.752-10.752 27.648-11.264 38.912-0.512l236.032 228.864c10.752 10.752 11.264 27.648 0.512 38.912-10.752 10.752-28.16 10.752-38.912 0.512z"  horiz-adv-x="1024" />

    
    <glyph glyph-name="shoucang11" unicode="&#58907;" d="M752-43.200000000000045c-9.6 0-20.8 3.2-30.4 8l-208 104L304-35.200000000000045c-20.8-11.2-48-9.6-67.2 4.8-19.2 14.4-30.4 40-25.6 64l43.2 224-164.8 153.6c-17.6 17.6-24 44.8-17.6 67.2 8 24 27.2 41.6 52.8 44.8l228.8 41.6 102.4 208c11.2 22.4 33.6 36.8 57.6 36.8s48-14.4 57.6-36.8l102.4-208 228.8-40c24-3.2 44.8-20.8 51.2-44.8 8-24 1.6-49.6-16-67.2l-164.8-155.2 41.6-224c4.8-25.6-6.4-49.6-25.6-64-9.6-8-22.4-12.8-36.8-12.8z"  horiz-adv-x="1024" />

    
    <glyph glyph-name="duihao" unicode="&#58919;" d="M931.851712658647 617.8982636202667L876.270368914647 673.4796073642667l-26.609766228069134 26.609766228069134-26.609764933530865-26.452311538093824-389.0694100916147-387.9672311454025-232.8748107245037 233.50462818986668-26.609766228069134 26.609766228069134L147.88708577532844 519.3319137886815l-55.581345038538274-55.581345038538274-26.609764933530865-26.45231024355555L92.14828734135307 410.6884922785185l314.75101131662217-316.1680996427852 26.609766228069134-26.609766228069134 26.609764933530865 26.452311538093824 0.15745468997530865 0.3149080854123457 471.4179747536592 470.0008864274963 26.609764933530865 26.609766228069134z"  horiz-adv-x="1024" />

    
    <glyph glyph-name="tongban" unicode="&#59692;" d="M512 832C264.6 832 64 631.4 64 384s200.6-448 448-448 448 200.6 448 448S759.4 832 512 832z m0-638.1L321.9 384 512 574.1 702.1 384 512 193.9z"  horiz-adv-x="1024" />

    
    <glyph glyph-name="right" unicode="&#58883;" d="M624.86499999 383.75300000000004l-292.15499999 292.159c-12.28 12.27-12.28 32.186 0 44.457 12.27 12.28 32.186 12.28 44.457 0l314.388-314.388c12.28-12.27 12.28-32.186 0-44.457l-314.388-314.387c-6.136-6.14-14.183-9.211-22.228-9.211s-16.092 3.071-22.228 9.211c-12.28 12.27-12.28 32.186 0 44.457l292.155 292.16z"  horiz-adv-x="1024" />

    
    <glyph glyph-name="yuedu" unicode="&#59067;" d="M1024 677.376c0 6.144-2.56 11.776-6.656 16.384-2.048 2.56-55.808 59.904-146.944 89.088-33.792 10.752-69.12 16.384-103.936 16.384-104.96 0-196.096-49.152-254.464-91.136-59.392 42.496-151.552 92.672-256.512 92.672-35.328 0-70.144-5.632-103.936-16.384-91.136-29.696-143.36-88.576-145.408-91.136-4.096-4.608-6.144-10.24-6.144-15.872v-591.36l65.024-77.824c3.584-9.728 13.312-16.384 24.064-15.872 4.096 0 8.192 0.512 11.776 2.048 21.504 5.632 130.048 31.744 216.064 31.744 39.424 0 69.632-5.632 86.528-16.384 8.192-5.12 12.288-10.752 14.336-17.92 0-13.824 11.264-24.576 24.576-24.576h24.064c26.624 0 66.048 0.512 105.984 3.072 2.048-0.512 3.584-0.512 5.632-0.512 11.776 0 21.504 7.68 24.576 19.456 2.56 10.24 8.704 18.432 19.456 24.576 17.92 10.24 46.08 15.872 83.456 15.872 83.968 0 184.832-26.112 214.528-34.304 3.584-2.048 7.68-2.56 11.776-2.56h0.512c9.728 0 18.944 6.144 23.04 14.848l68.608 78.336V677.376z m-50.176-10.752v-534.528c-39.424 14.848-98.816 34.304-164.864 46.592-39.936 7.68-77.312 11.264-111.616 11.264-65.024 0-119.296-13.312-160.256-39.936V664.064c76.8 56.32 154.112 84.48 229.376 84.48 29.696 0 59.392-4.608 88.064-13.824 61.44-18.944 103.424-53.76 119.296-68.096zM327.168 134.656c76.288 0 132.096-18.944 166.4-56.832 2.048-2.048 2.048-2.048 2.56-2.048l1.536-1.024c0.512-0.512 1.024-0.512 1.536-1.024 0.512-0.512 2.048-1.024 2.048-1.024l1.536-0.512c0.512 0 2.048-1.024 2.56-1.024l1.536-0.512c0.512 0 1.024 0 1.536-0.512h5.12c0.512 0 2.048 0 2.56 0.512 0.512 0 1.024 0 2.048 0.512 0.512 0 2.56 0.512 3.072 1.024 0.512 0 1.024 0.512 1.536 0.512l2.048 1.024c0.512 0 0.512 0.512 1.024 0.512 0.512 0.512 1.024 0.512 1.536 1.024l1.024 0.512 3.584 3.072c33.28 39.936 89.088 60.416 164.864 60.416 43.008 0 133.632-7.168 260.608-54.784l-34.304-38.912c-22.528 6.144-66.56 16.896-114.688 24.064-38.4 6.144-72.704 9.216-102.4 9.216-46.592 0-83.456-7.68-109.056-22.528-16.384-9.216-28.672-22.016-36.352-36.864-35.84-2.048-71.168-2.56-94.72-2.56h-4.608c-6.144 14.336-16.896 26.112-31.232 34.816-25.088 15.872-63.488 24.064-114.176 24.064-82.432 0-178.176-20.992-216.576-30.72l-31.744 38.4c55.296 19.968 160.256 51.2 259.584 51.2z m-1.536 50.176c-34.304 0-71.68-3.584-111.104-10.24-65.536-11.264-124.928-29.696-163.84-43.52V666.624c15.36 14.848 56.32 50.176 116.736 70.144 28.672 9.216 58.368 13.824 88.064 13.824 75.776 0 153.6-29.184 231.424-86.528v-517.12c-41.472 25.6-95.744 37.888-161.28 37.888z"  horiz-adv-x="1024" />

    
    <glyph glyph-name="sanx-up" unicode="&#58886;" d="M234.88884163 518.52193155l279.65492248-279.65492248 278.8075161 278.8075161z"  horiz-adv-x="1024" />

    
    <glyph glyph-name="sanjiaoxiabiaozhengfangxing" unicode="&#58936;" d="M789.111 249.478L509.456 529.133 230.65 250.325z"  horiz-adv-x="1024" />

    


  </font>
</defs>
</svg>
